<?xml version="1.0" encoding="iso-8859-1"?>
<!-- Generator: Adobe Illustrator 19.0.0, SVG Export Plug-In . SVG Version: 6.00 Build 0)  -->
<svg version="1.1" id="Capa_1" xmlns="http://www.w3.org/2000/svg" xmlns:xlink="http://www.w3.org/1999/xlink" x="0px" y="0px"
	 viewBox="0 0 496 496" style="enable-background:new 0 0 496 496;" xml:space="preserve">
<g>
	<path style="fill:#FFA64D;" d="M360,384c-13.232,0-24-10.768-24-24s10.768-24,24-24s24,10.768,24,24S373.232,384,360,384z"/>
	<path style="fill:#FFA64D;" d="M360,328c-13.232,0-24-10.768-24-24s10.768-24,24-24s24,10.768,24,24S373.232,328,360,328z"/>
	<path style="fill:#FFA64D;" d="M311.456,355.992c-4.064,0-8.176-1.032-11.944-3.2h-0.016c-11.456-6.624-15.392-21.336-8.776-32.792
		c3.2-5.544,8.376-9.52,14.568-11.176c6.224-1.664,12.672-0.816,18.208,2.392c11.456,6.616,15.4,21.32,8.792,32.784
		C327.84,351.688,319.76,355.992,311.456,355.992z"/>
	<path style="fill:#FFA64D;" d="M311.536,412.008c-2.08,0-4.176-0.272-6.248-0.832c-6.192-1.656-11.368-5.632-14.568-11.184
		c-6.616-11.448-2.68-26.16,8.776-32.784c11.48-6.592,26.168-2.664,32.8,8.792c6.608,11.472,2.664,26.168-8.792,32.792l0,0
		C319.808,410.92,315.704,412.008,311.536,412.008z"/>
	<path style="fill:#FFA64D;" d="M360,440c-13.232,0-24-10.768-24-24s10.768-24,24-24s24,10.768,24,24S373.232,440,360,440z"/>
	<path style="fill:#FFA64D;" d="M408.464,412.008c-4.168,0-8.264-1.088-11.96-3.216c-11.456-6.616-15.4-21.32-8.792-32.784
		c6.616-11.464,21.32-15.416,32.784-8.8h0.016c11.456,6.624,15.392,21.336,8.776,32.792c-3.2,5.544-8.376,9.52-14.568,11.176
		C412.64,411.736,410.536,412.008,408.464,412.008z"/>
	<path style="fill:#FFA64D;" d="M408.536,355.992c-8.304,0-16.384-4.304-20.832-11.992c-6.608-11.472-2.664-26.168,8.792-32.792l0,0
		c5.536-3.2,11.992-4.056,18.208-2.392c6.192,1.656,11.368,5.632,14.568,11.184c6.616,11.448,2.68,26.16-8.776,32.784
		C416.736,354.96,412.608,355.992,408.536,355.992z"/>
	<path style="fill:#FFA64D;" d="M360,272c-13.232,0-24-10.768-24-24s10.768-24,24-24s24,10.768,24,24S373.232,272,360,272z"/>
	<path style="fill:#FFA64D;" d="M294.216,293.4c-1.264,0-2.536-0.104-3.808-0.304c-6.336-1-11.888-4.408-15.656-9.592l0,0
		c-3.776-5.184-5.296-11.528-4.288-17.856c1-6.336,4.408-11.896,9.592-15.664c5.192-3.776,11.584-5.288,17.856-4.288
		c6.336,1,11.896,4.408,15.664,9.6c3.768,5.176,5.288,11.52,4.28,17.848c-1,6.336-4.408,11.896-9.592,15.664
		C304.128,291.824,299.24,293.4,294.216,293.4z"/>
	<path style="fill:#FFA64D;" d="M253.464,349.392c-2.448,0-4.936-0.376-7.392-1.168h-0.008
		c-12.584-4.096-19.504-17.664-15.408-30.248c4.096-12.576,17.672-19.496,30.24-15.408c12.592,4.104,19.504,17.664,15.408,30.248
		C273.016,342.936,263.584,349.392,253.464,349.392z"/>
	<path style="fill:#FFA64D;" d="M253.496,418.608c-10.128,0-19.552-6.456-22.84-16.584c-4.096-12.576,2.824-26.152,15.408-30.24
		c12.568-4.096,26.16,2.832,30.24,15.416c4.096,12.576-2.816,26.144-15.4,30.24h-0.008
		C258.448,418.232,255.952,418.608,253.496,418.608z"/>
	<path style="fill:#FFA64D;" d="M294.12,474.616c-5.024,0-9.904-1.576-14.056-4.592c-5.184-3.768-8.592-9.328-9.592-15.664
		c-1.008-6.328,0.512-12.672,4.288-17.856c3.76-5.184,9.32-8.592,15.656-9.592c6.304-1,12.664,0.512,17.856,4.288
		c5.184,3.768,8.592,9.328,9.592,15.664c1.008,6.328-0.512,12.672-4.28,17.848l0,0c-3.768,5.192-9.328,8.6-15.664,9.6
		C296.656,474.512,295.384,474.616,294.12,474.616z"/>
	<path style="fill:#FFA64D;" d="M360,496c-13.232,0-24-10.768-24-24s10.768-24,24-24s24,10.768,24,24S373.232,496,360,496z"/>
	<path style="fill:#FFA64D;" d="M425.88,474.616c-1.264,0-2.536-0.104-3.808-0.304c-6.336-1-11.896-4.408-15.664-9.6
		c-3.768-5.176-5.288-11.52-4.28-17.848c1-6.336,4.408-11.896,9.592-15.664c5.192-3.776,11.584-5.288,17.856-4.288
		c6.336,1,11.888,4.408,15.656,9.592l0,0c3.776,5.184,5.296,11.528,4.288,17.856c-1,6.336-4.408,11.896-9.592,15.664
		C435.792,473.04,430.904,474.616,425.88,474.616z"/>
	<path style="fill:#FFA64D;" d="M466.496,418.608c-2.456,0-4.944-0.376-7.4-1.168c-12.592-4.104-19.504-17.664-15.408-30.248
		c4.088-12.56,17.64-19.488,30.232-15.408h0.008c12.584,4.096,19.504,17.664,15.408,30.248
		C486.056,412.16,476.624,418.608,466.496,418.608z"/>
	<path style="fill:#FFA64D;" d="M466.536,349.392c-10.128,0-19.552-6.456-22.84-16.584c-4.096-12.576,2.816-26.144,15.4-30.24h0.008
		c12.576-4.096,26.16,2.832,30.24,15.416c4.096,12.576-2.824,26.152-15.408,30.24C471.488,349.016,468.992,349.392,466.536,349.392z
		"/>
	<path style="fill:#FFA64D;" d="M425.784,293.4c-5.024,0-9.904-1.576-14.056-4.592c-5.184-3.768-8.592-9.328-9.592-15.664
		c-1.008-6.328,0.512-12.672,4.28-17.848l0,0c3.768-5.192,9.328-8.6,15.664-9.6c6.296-1,12.672,0.512,17.856,4.288
		c5.184,3.768,8.592,9.328,9.592,15.664c1.008,6.328-0.512,12.672-4.288,17.856c-3.76,5.184-9.32,8.592-15.656,9.592
		C428.32,293.296,427.048,293.4,425.784,293.4z"/>
</g>
<path style="fill:#333333;" d="M360,224c-11.968,0-23.512,1.712-34.576,4.624l13.488-23.6l-9.432-5.392L445.928,0H371.36
	l-96.304,168.528l-5.68-3.248L195.632,280h-124.2C32.048,280,0,312.048,0,351.432c0,38.616,15.04,74.92,42.344,102.224
	S105.952,496,144.568,496c32.408,0,63.192-11.6,87.344-32H232v-0.072c7.432-6.288,14.248-13.376,20.264-21.256
	C277.144,475.024,316.12,496,360,496c74.992,0,136-61.008,136-136S434.992,224,360,224z M380.64,16h37.432L315.584,191.688
	l-26.64-15.224L380.64,16z M71.432,296h132.936l70.256-109.288l42.464,24.264l-14.32,25.056l0.728,0.416
	C256.664,257.952,224,305.184,224,360c0,11.552,1.608,22.72,4.328,33.432l-19.696,5.376c-44.752,12.184-92.52,12.184-137.256,0
	l-50.848-13.872C17.624,374.136,16,362.92,16,351.432C16,320.864,40.864,296,71.432,296z M216,456.224
	c-7.448,5.56-15.496,10.232-24,13.912v-51.144c7-1.336,13.96-2.864,20.84-4.736l3.16-0.864V456.224z M96,456v14.512
	c-8.416-3.432-16.44-7.8-24-12.992v-42.128c7.928,2.008,15.936,3.64,24,4.936V440h16v-17.576c7.976,0.816,15.976,1.328,24,1.44
	v55.712c-8.184-0.536-16.2-1.84-24-3.872V456H96z M152,423.6c8.024-0.352,16.04-0.928,24-1.976v54.12
	c-7.784,2.12-15.808,3.512-24,4.024V423.6z M26.968,403.288L56,411.208v33.264c-0.768-0.728-1.592-1.376-2.344-2.128
	C42.224,430.912,33.304,417.648,26.968,403.288z M232,441.848v-32.824l1.168-0.32c2.664,6.904,5.856,13.528,9.56,19.84
	C239.456,433.272,235.856,437.704,232,441.848z M360,480c-66.168,0-120-53.832-120-120s53.832-120,120-120s120,53.832,120,120
	S426.168,480,360,480z"/>
<g>
</g>
<g>
</g>
<g>
</g>
<g>
</g>
<g>
</g>
<g>
</g>
<g>
</g>
<g>
</g>
<g>
</g>
<g>
</g>
<g>
</g>
<g>
</g>
<g>
</g>
<g>
</g>
<g>
</g>
</svg>
